<svg width="22" height="24" viewBox="0 0 22 24" fill="none" xmlns="http://www.w3.org/2000/svg">
<path d="M0.201854 15.4656L2.03878 17.4609C2.1677 17.6009 2.34253 17.6796 2.52483 17.6796C2.70712 17.6796 2.88195 17.6009 3.01087 17.4609C3.2019 17.2522 3.42914 17.0867 3.67943 16.9741C3.92972 16.8615 4.19809 16.8039 4.469 16.8047C5.60643 16.8047 6.53142 17.8097 6.53142 19.0454C6.53209 19.3398 6.47902 19.6314 6.3753 19.9034C6.27158 20.1754 6.11925 20.4223 5.92713 20.6299C5.79825 20.77 5.72585 20.9599 5.72585 21.158C5.72585 21.356 5.79825 21.5459 5.92713 21.686L7.76406 23.6813C7.89846 23.8273 8.07411 23.9002 8.25011 23.9002C8.4261 23.9002 8.60209 23.8273 8.73615 23.6813L21.7981 9.4905C21.8621 9.42125 21.9129 9.33896 21.9475 9.24834C21.9822 9.15773 22 9.06058 22 8.96246C22 8.86434 21.9822 8.76719 21.9475 8.67657C21.9129 8.58595 21.8621 8.50366 21.7981 8.43441L19.9612 6.43911C19.8323 6.29909 19.6575 6.22043 19.4752 6.22043C19.2929 6.22043 19.118 6.29909 18.9891 6.43911C18.7981 6.6478 18.5709 6.81325 18.3206 6.92588C18.0703 7.0385 17.8019 7.09607 17.531 7.09525C16.3936 7.09525 15.4686 6.09031 15.4686 4.85459C15.4686 4.25596 15.6834 3.69356 16.0729 3.27008C16.2017 3.13001 16.2742 2.94007 16.2742 2.74203C16.2742 2.54398 16.2017 2.35404 16.0729 2.21398L14.2359 0.218678C14.107 0.0786585 13.9322 0 13.7499 0C13.5676 0 13.3928 0.0786585 13.2639 0.218678L0.201854 14.4095C0.137874 14.4787 0.0871088 14.561 0.0524699 14.6516C0.0178309 14.7423 0 14.8394 0 14.9375C0 15.0357 0.0178309 15.1328 0.0524699 15.2234C0.0871088 15.314 0.137874 15.3963 0.201854 15.4656ZM8.93758 7.03101L9.48275 7.62329C9.6168 7.76931 9.7928 7.84213 9.96879 7.84213C10.1448 7.84213 10.3208 7.76931 10.4548 7.62329C10.5837 7.48323 10.6561 7.29329 10.6561 7.09525C10.6561 6.8972 10.5837 6.70726 10.4548 6.5672L9.90967 5.97492L13.7499 1.80282L14.6629 2.79431C14.29 3.40493 14.0919 4.12183 14.0936 4.85459C14.0936 6.91375 15.6356 8.58902 17.531 8.58902C18.2053 8.59105 18.8651 8.37598 19.427 7.97097L20.3397 8.96246L16.4998 13.1346L15.9546 12.5423C15.8912 12.4709 15.8153 12.414 15.7315 12.3749C15.6476 12.3358 15.5574 12.3152 15.4661 12.3143C15.3748 12.3134 15.2843 12.3323 15.1998 12.3699C15.1153 12.4074 15.0386 12.4629 14.974 12.533C14.9095 12.6031 14.8584 12.6865 14.8238 12.7783C14.7893 12.8701 14.7719 12.9685 14.7727 13.0676C14.7735 13.1668 14.7924 13.2648 14.8285 13.3559C14.8645 13.4471 14.9169 13.5295 14.9825 13.5984L15.5277 14.1906L8.25011 22.0972L7.33714 21.1057C7.70999 20.4951 7.90806 19.7782 7.90637 19.0454C7.90637 16.9862 6.36437 15.311 4.469 15.311C3.79466 15.3089 3.13488 15.524 2.57295 15.929L1.66033 14.9375L8.93758 7.03101Z" fill="#D2FA00"/>
</svg>
