<svg width="18" height="23" viewBox="0 0 18 23" fill="none" xmlns="http://www.w3.org/2000/svg">
<path d="M17.1746 2.32223L17.1746 20.5768C17.1746 21.8791 16.3601 22.8994 15.3206 22.8994L1.85401 22.8994C0.814492 22.8994 0 21.8791 0 20.5768L0 2.32223C0 1.01995 0.814492 2.0152e-06 1.85401 2.0152e-06L15.3206 2.0152e-06C16.3601 2.47628e-06 17.1746 1.01995 17.1746 2.32223ZM1.07341 20.5768C1.07341 21.3131 1.48467 21.826 1.85401 21.826L15.3206 21.826C15.6899 21.826 16.1012 21.3131 16.1012 20.5768L16.1012 2.32223C16.1012 1.58636 15.6899 1.07341 15.3206 1.07341L1.85401 1.07341C1.48467 1.07341 1.07341 1.58636 1.07341 2.32223L1.07341 20.5768Z" fill="white"/>
<path d="M10.9129 11.4497C10.9129 12.7321 9.8695 13.7754 8.58714 13.7754C7.30478 13.7754 6.26142 12.7321 6.26142 11.4497C6.26142 10.1673 7.30478 9.12398 8.58714 9.12398C9.8695 9.12398 10.9129 10.1673 10.9129 11.4497ZM7.33483 11.4497C7.33483 12.1402 7.89669 12.702 8.58714 12.702C9.27759 12.702 9.83945 12.1402 9.83945 11.4497C9.83945 10.7593 9.27759 10.1974 8.58714 10.1974C7.89669 10.1974 7.33483 10.7593 7.33483 11.4497ZM12.523 19.4332V22.3627C12.523 22.659 12.2826 22.8994 11.9863 22.8994H5.18801C4.8917 22.8994 4.65131 22.659 4.65131 22.3627L4.65131 19.4332C4.65131 18.1879 5.66462 17.1746 6.90994 17.1746H10.2643C11.5097 17.1746 12.523 18.1879 12.523 19.4332ZM11.4496 21.826V19.4332C11.4496 18.7798 10.9178 18.248 10.2643 18.248H6.90994C6.25653 18.248 5.72472 18.7798 5.72472 19.4332V21.826H11.4496ZM12.523 0.536707V3.46622C12.523 4.71154 11.5097 5.72485 10.2643 5.72485H6.90994C5.66462 5.72485 4.65131 4.71154 4.65131 3.46622V0.536707C4.65131 0.240401 4.8917 5.49453e-07 5.18801 5.49453e-07H11.9863C12.2826 5.49453e-07 12.523 0.240401 12.523 0.536707ZM5.72472 3.46622C5.72472 4.11963 6.25653 4.65144 6.90994 4.65144H10.2643C10.9178 4.65144 11.4496 4.11963 11.4496 3.46622V1.07341H5.72472V3.46622Z" fill="white"/>
<path d="M0.536743 10.9126L0.536743 11.9862H6.79827V10.9126H0.536743Z" fill="white"/>
<path d="M10.3762 10.9126V11.9862H16.6377V10.9126H10.3762Z" fill="white"/>
</svg>
