<svg width="20" height="17" viewBox="0 0 20 17" fill="none" xmlns="http://www.w3.org/2000/svg">
<path d="M14.0909 15.7273V14.091C14.0909 13.223 13.7461 12.3906 13.1323 11.7768C12.5186 11.163 11.6862 10.8182 10.8182 10.8182H4.27273C3.40475 10.8182 2.57232 11.163 1.95856 11.7768C1.3448 12.3906 1 13.223 1 14.091V15.7273" stroke="#B4B4B4" stroke-linecap="round" stroke-linejoin="round"/>
<path d="M7.54545 7.54545C9.35292 7.54545 10.8182 6.0802 10.8182 4.27273C10.8182 2.46525 9.35292 1 7.54545 1C5.73797 1 4.27272 2.46525 4.27272 4.27273C4.27272 6.0802 5.73797 7.54545 7.54545 7.54545Z" stroke="#B4B4B4" stroke-linecap="round" stroke-linejoin="round"/>
<path d="M19 15.7273V14.0909C18.9995 13.3658 18.7581 12.6614 18.3138 12.0883C17.8696 11.5152 17.2476 11.1058 16.5455 10.9246" stroke="#B4B4B4" stroke-linecap="round" stroke-linejoin="round"/>
<path d="M13.2727 1.10632C13.9767 1.28657 14.6007 1.69599 15.0462 2.27003C15.4918 2.84408 15.7337 3.55009 15.7337 4.27678C15.7337 5.00346 15.4918 5.70948 15.0462 6.28352C14.6007 6.85757 13.9767 7.26699 13.2727 7.44723" stroke="#B4B4B4" stroke-linecap="round" stroke-linejoin="round"/>
</svg>
